HIERARCHY
ROOT Hips
{
	OFFSET 0.000000 88.474243 0.000000
	CHANNELS 6 Xposition Yposition Zposition Zrotation Yrotation Xrotation 
	JOINT Hips_Spine
	{
		OFFSET 0.000000 0.000000 0.000000
		CHANNELS 3 Zrotation Yrotation Xrotation
		JOINT Spine
		{
			OFFSET 0.005100 8.711998 -0.691000
			CHANNELS 3 Zrotation Yrotation Xrotation
			JOINT Spine1
			{
				OFFSET -0.009200 8.660301 -1.275000
				CHANNELS 3 Zrotation Yrotation Xrotation
				JOINT Spine2
				{
					OFFSET 0.006300 9.852501 -1.857000
					CHANNELS 3 Zrotation Yrotation Xrotation
					JOINT Spine2_Neck
					{
						OFFSET 0.000000 0.000000 0.000000
						CHANNELS 3 Zrotation Yrotation Xrotation
						JOINT Neck
						{
							OFFSET 0.016300 11.420799 -0.263300
							CHANNELS 3 Zrotation Yrotation Xrotation
							End Site #name: Head
							{
								OFFSET -0.019200 9.262405 2.362500
							}
						}
					}
					JOINT Spine2_LeftShoulder
					{
						OFFSET 0.000000 0.000000 0.000000
						CHANNELS 3 Zrotation Yrotation Xrotation
						JOINT LeftShoulder
						{
							OFFSET 5.616900 6.732201 -0.345700
							CHANNELS 3 Zrotation Yrotation Xrotation
							JOINT LeftArm
							{
								OFFSET 10.664888 -0.183372 -2.440700
								CHANNELS 3 Zrotation Yrotation Xrotation
								JOINT LeftForeArm
								{
									OFFSET 27.459126 0.000000 0.000000
									CHANNELS 3 Zrotation Yrotation Xrotation
									End Site #name: LeftHand
									{
										OFFSET 21.306858 0.000000 0.000000
									}
								}
							}
						}
					}
					JOINT Spine2_RightShoulder
					{
						OFFSET 0.000000 0.000000 0.000000
						CHANNELS 3 Zrotation Yrotation Xrotation
						JOINT RightShoulder
						{
							OFFSET -5.580300 6.737503 -0.344400
							CHANNELS 3 Zrotation Yrotation Xrotation
							JOINT RightArm
							{
								OFFSET -10.679335 -0.188484 -2.383900
								CHANNELS 3 Zrotation Yrotation Xrotation
								JOINT RightForeArm
								{
									OFFSET -27.503529 0.000000 0.000000
									CHANNELS 3 Zrotation Yrotation Xrotation
									End Site #name: RightHand
									{
										OFFSET -21.306808 0.000000 0.000000
									}
								}
							}
						}
					}
				}
			}
		}
	}
	JOINT Hips_LeftUpLeg
	{
		OFFSET 0.000000 0.000000 0.000000
		CHANNELS 3 Zrotation Yrotation Xrotation
		JOINT LeftUpLeg
		{
			OFFSET 6.857700 -6.739601 0.312100
			CHANNELS 3 Zrotation Yrotation Xrotation
			JOINT LeftLeg
			{
				OFFSET -0.367590 -34.731552 -4.572400
				CHANNELS 3 Zrotation Yrotation Xrotation
				End Site #name: LeftFoot
				{
					OFFSET 0.367590 -34.656704 -6.067400
				}
			}
		}
	}
	JOINT Hips_RightUpLeg
	{
		OFFSET 0.000000 0.000000 0.000000
		CHANNELS 3 Zrotation Yrotation Xrotation
		JOINT RightUpLeg
		{
			OFFSET -6.876100 -6.733299 0.301000
			CHANNELS 3 Zrotation Yrotation Xrotation
			JOINT RightLeg
			{
				OFFSET 0.347353 -34.795158 -4.515900
				CHANNELS 3 Zrotation Yrotation Xrotation
				End Site #name: RightFoot
				{
					OFFSET -0.347353 -34.589367 -6.070300
				}
			}
		}
	}
}
MOTION
Frames: 6
Frame Time: 0.041667
0.020318 -0.004885 -0.037623 -7.282962 0.236686 -9.454202 0.000000 0.000000 0.000000 1.538286 0.319530 14.334143 1.908188 -0.207458 4.195082 0.000000 0.000000 0.000000 2.002572 -0.027168 4.335198 0.029882 -0.664561 8.922083 1.177310 0.091997 4.094309 -9.628048 -7.190477 2.088778 -57.028526 -25.733591 19.332905 1.046187 -62.753895 -0.370083 1.982342 -0.319011 4.475908 13.955678 -2.479599 0.321731 81.369928 31.173250 52.054490 -0.019703 31.226177 0.741430 0.000000 0.000000 0.000000 4.414173 3.988316 -85.818454 -6.467519 0.381954 93.326682 -0.000000 -0.000000 -0.000000 6.541509 -14.585851 -71.395971 3.330002 -3.205272 85.355893 
0.052989 -0.001475 -0.080045 -8.973194 0.100927 -8.672656 0.000000 0.000000 0.000000 3.255555 0.497590 13.237232 1.643344 -0.308227 4.882021 0.000000 0.000000 0.000000 1.737885 0.065810 5.269794 -0.235769 -1.743530 9.668064 1.540440 0.026742 5.114558 -6.599097 -6.171902 1.515250 -58.039326 -31.733325 15.156455 -0.231570 -67.268821 0.850937 1.644015 -0.371929 5.024179 11.229382 0.980533 0.960096 85.964642 37.737630 45.712344 -0.057904 36.622712 0.608124 0.000000 0.000000 -0.000000 5.809730 3.736664 -87.902308 -8.083300 1.105730 93.637750 -0.000000 -0.000000 -0.000000 6.888160 -14.974290 -75.422206 5.455440 -4.138215 88.359182 
0.067116 -0.005166 -0.130987 -9.655216 1.127205 -8.704522 0.000000 0.000000 0.000000 3.335194 0.443339 13.156082 1.629540 -0.338063 5.474640 0.000000 0.000000 0.000000 1.882900 -0.032588 5.782219 0.762746 -2.089148 10.156351 1.570778 -0.117722 5.388506 -7.543095 -5.404354 1.537569 -55.294553 -29.289289 8.729854 0.329552 -71.744738 0.048586 1.618703 -0.334250 5.509664 8.900863 3.250827 1.169611 84.071922 39.585830 46.689046 -0.000351 49.069161 0.331956 0.000000 0.000000 -0.000000 6.429451 2.691558 -88.379121 -8.181359 1.658509 94.134670 -0.000000 -0.000000 -0.000000 6.309079 -15.488784 -76.295536 4.834418 -5.153133 90.426142 
0.071006 -0.011773 -0.181260 -9.838714 1.433896 -8.640017 0.000000 0.000000 0.000000 3.279633 0.285653 12.993420 1.547849 -0.349628 6.089876 0.000000 0.000000 0.000000 1.943270 -0.063007 6.132270 1.127050 -2.736953 10.603196 1.553168 -0.202319 5.687888 -8.537519 -5.458733 1.583522 -55.001985 -28.454380 6.091312 0.428410 -72.230753 -0.078487 1.617351 -0.342495 5.871316 7.553051 4.430870 1.773037 85.160993 41.060521 47.535461 -0.044305 57.602590 0.194286 0.000000 0.000000 -0.000000 6.502451 2.399647 -88.429710 -8.159674 1.992085 94.494790 -0.000000 -0.000000 -0.000000 6.387570 -15.674172 -76.912529 5.010847 -5.651706 91.632742 
0.075679 -0.017366 -0.227307 -9.894650 1.603722 -8.656724 -0.000000 0.000000 0.000000 3.354497 0.170399 13.290176 1.618242 -0.389823 6.447780 0.000000 0.000000 0.000000 2.014056 -0.094246 6.414753 1.591309 -3.177333 10.984130 1.635831 -0.263960 5.902720 -8.876506 -5.583601 1.570105 -55.200531 -29.064712 4.733875 0.376356 -72.169705 0.001858 1.672386 -0.362907 6.182250 7.059485 4.780408 2.243740 86.347999 41.886153 48.509899 -0.202740 61.341147 0.029915 0.000000 0.000000 -0.000000 6.610588 2.195315 -88.467690 -8.262804 2.122571 94.643704 -0.000000 -0.000000 -0.000000 6.496363 -15.664558 -77.056087 5.255302 -5.838355 92.044782 
0.081174 -0.021987 -0.270803 -9.874215 1.597356 -8.685359 -0.000000 0.000000 0.000000 3.434744 0.096464 13.634688 1.713902 -0.427950 6.706683 0.000000 0.000000 0.000000 2.098381 -0.115686 6.645378 1.956257 -3.410657 11.188866 1.713228 -0.308292 6.131629 -9.077296 -5.571603 1.543611 -55.897898 -29.958493 4.130961 0.329734 -72.270054 0.078823 1.726883 -0.395611 6.455615 6.921417 5.014682 2.431936 87.220161 42.306956 48.856592 -0.303869 62.342702 -0.074867 0.000000 0.000000 -0.000000 6.695028 2.162381 -88.446516 -8.302607 2.189349 94.756589 -0.000000 -0.000000 -0.000000 6.576843 -15.566541 -77.047067 5.401956 -5.894380 92.144283 
